<?xml version="1.0" encoding="UTF-8"?>
<svg xmlns="http://www.w3.org/2000/svg" xmlns:xlink="http://www.w3.org/1999/xlink" fill-opacity="1" color-rendering="auto" color-interpolation="auto" stroke="black" text-rendering="auto" stroke-linecap="square" width="725" stroke-miterlimit="10" stroke-opacity="1" shape-rendering="auto" fill="black" stroke-dasharray="none" font-weight="normal" stroke-width="1" height="388" font-family="'Dialog'" font-style="normal" stroke-linejoin="miter" font-size="12" stroke-dashoffset="0" image-rendering="auto">
  <!--Generated by ySVG 2.5-->
  <defs id="genericDefs"/>
  <g>
    <g fill="white" text-rendering="optimizeQuality" shape-rendering="geometricPrecision" transform="translate(241,167)" stroke="white">
      <rect x="-241" width="725" height="388" y="-167" clip-path="url(#clipPath2)" stroke="none"/>
    </g>
    <g shape-rendering="geometricPrecision" text-rendering="optimizeQuality" transform="matrix(1,0,0,1,665.5,175)">
      <g clip-path="url(#clipPath3)">
        <svg xmlns:a="http://ns.adobe.com/AdobeSVGViewerExtensions/3.0/" xml:space="preserve" opacity="1" writing-mode="lr-tb" stop-color="rgb(0, 0, 0)" shape-rendering="auto" glyph-orientation-horizontal="0deg" color-profile="auto" lighting-color="rgb(255, 255, 255)" color="rgb(0, 0, 0)" font-weight="400" alignment-baseline="auto" font-style="normal" version="1.1" color-interpolation-filters="linearrgb" text-anchor="start" stroke-linecap="butt" color-interpolation="srgb" font-variant="normal" word-spacing="normal" fill-opacity="1" text-rendering="auto" clip-path="none" text-decoration="none" letter-spacing="normal" viewBox="0 0 23 38" glyph-orientation-vertical="auto" display="inline" font-size-adjust="none" overflow="hidden" fill="rgb(0, 0, 0)" font-stretch="normal" stroke-dasharray="none" stroke-miterlimit="4" stop-opacity="1" color-rendering="auto" font-size="12" pointer-events="visiblepainted" mask="none" direction="ltr" baseline-shift="baseline" enable-background="new 0 0 23 38" fill-rule="nonzero" image-rendering="auto" stroke-dashoffset="0" width="23px" marker-end="none" clip="auto" cursor="auto" stroke="none" filter="none" visibility="visible" kerning="auto" stroke-width="1" font-family="&quot;Arial&quot;,&quot;Helvetica&quot;,sans-serif" flood-opacity="1" clip-rule="nonzero" src="none" height="38px" unicode-bidi="normal" stroke-linejoin="miter" stroke-opacity="1" flood-color="rgb(0, 0, 0)" dominant-baseline="auto" marker-start="none" x="0px" marker-mid="none" y="0px">
<defs>
<clipPath clipPathUnits="userSpaceOnUse" id="clipPath1">
              <path d="M0 0 L725 0 L725 388 L0 388 L0 0 Z"/>
            </clipPath>
            <clipPath clipPathUnits="userSpaceOnUse" id="clipPath2">
              <path d="M-241 -167 L484 -167 L484 221 L-241 221 L-241 -167 Z"/>
            </clipPath>
            <clipPath clipPathUnits="userSpaceOnUse" id="clipPath3">
              <path d="M-665.5 -175 L59.5 -175 L59.5 213 L-665.5 213 L-665.5 -175 Z"/>
            </clipPath>
            <clipPath clipPathUnits="userSpaceOnUse" id="clipPath4">
              <path d="M-176 -15.5 L549 -15.5 L549 372.5 L-176 372.5 L-176 -15.5 Z"/>
            </clipPath>
            <clipPath clipPathUnits="userSpaceOnUse" id="clipPath5">
              <path d="M-139.9487 -212.5926 L585.0513 -212.5926 L585.0513 175.4074 L-139.9487 175.4074 L-139.9487 -212.5926 Z"/>
            </clipPath>
            <clipPath clipPathUnits="userSpaceOnUse" id="clipPath6">
              <path d="M-485.257 -163.5926 L239.743 -163.5926 L239.743 224.4074 L-485.257 224.4074 L-485.257 -163.5926 Z"/>
            </clipPath>
          </defs>
<g>
	<path fill="#C5C5C5" d="M23,35.916C23,37.063,22.063,38,20.916,38H2.084C0.938,38,0,37.063,0,35.916V2.084C0,0.938,0.938,0,2.084,0   h18.832C22.063,0,23,0.938,23,2.084V35.916z"/>
</g>
<g>
	<linearGradient y2="2.0005" id="svg1.SVGID_1_" x1="11.5005" gradientUnits="userSpaceOnUse" x2="11.5005" y1="34">
		<stop offset="0" style="stop-color:#515151"/>
		<stop offset="1" style="stop-color:#848484"/>
	</linearGradient>
	<path fill="url(#svg1.SVGID_1_)" d="M22,32.184C22,33.187,21.187,34,20.184,34H2.816C1.813,34,1,33.187,1,32.184V3.816   C1,2.813,1.813,2,2.816,2h17.367C21.187,2,22,2.813,22,3.816V32.184z"/>
</g>
<radialGradient gradientTransform="matrix(1 0 0 0.9565 0 1.1737)" id="svg1.SVGID_2_" r="23.5037" cx="11.5" gradientUnits="userSpaceOnUse" cy="4.1665">
	<stop offset="0" style="stop-color:#9CD7FF"/>
	<stop offset="1" style="stop-color:#3C89C9"/>
</radialGradient>
<rect x="2" fill="url(#svg1.SVGID_2_)" width="19" y="5" height="22"/>
<linearGradient y2="29.334" id="svg1.SVGID_3_" x1="11.5835" gradientUnits="userSpaceOnUse" x2="11.5835" y1="31.5">
	<stop offset="0" style="stop-color:#B8B8B8"/>
	<stop offset="1" style="stop-color:#F2F2F2"/>
</linearGradient>
<ellipse rx="1.5" fill="url(#svg1.SVGID_3_)" ry="1.083" cx="11.583" cy="30.417"/>
<linearGradient y2="29.6631" id="svg1.SVGID_4_" x1="15.334" gradientUnits="userSpaceOnUse" x2="15.334" y1="31.1709">
	<stop offset="0" style="stop-color:#B8B8B8"/>
	<stop offset="1" style="stop-color:#F2F2F2"/>
</linearGradient>
<ellipse rx="1.043" fill="url(#svg1.SVGID_4_)" ry="0.754" cx="15.333" cy="30.417"/>
<linearGradient y2="29.6631" id="svg1.SVGID_5_" x1="19.084" gradientUnits="userSpaceOnUse" x2="19.084" y1="31.1709">
	<stop offset="0" style="stop-color:#B8B8B8"/>
	<stop offset="1" style="stop-color:#F2F2F2"/>
</linearGradient>
<ellipse rx="1.043" fill="url(#svg1.SVGID_5_)" ry="0.754" cx="19.083" cy="30.417"/>
<linearGradient y2="29.6631" id="svg1.SVGID_6_" x1="4.0835" gradientUnits="userSpaceOnUse" x2="4.0835" y1="31.1709">
	<stop offset="0" style="stop-color:#B8B8B8"/>
	<stop offset="1" style="stop-color:#F2F2F2"/>
</linearGradient>
<ellipse rx="1.043" fill="url(#svg1.SVGID_6_)" ry="0.754" cx="4.083" cy="30.417"/>
<linearGradient y2="29.6631" id="svg1.SVGID_7_" x1="7.8335" gradientUnits="userSpaceOnUse" x2="7.8335" y1="31.1709">
	<stop offset="0" style="stop-color:#B8B8B8"/>
	<stop offset="1" style="stop-color:#F2F2F2"/>
</linearGradient>
<ellipse rx="1.043" fill="url(#svg1.SVGID_7_)" ry="0.754" cx="7.833" cy="30.417"/>
<linearGradient y2="2.4658" id="svg1.SVGID_8_" x1="11.0835" gradientUnits="userSpaceOnUse" x2="11.0835" y1="4.3682">
	<stop offset="0" style="stop-color:#B8B8B8"/>
	<stop offset="1" style="stop-color:#A2A2A2"/>
</linearGradient>
<ellipse rx="1.063" fill="url(#svg1.SVGID_8_)" ry="0.951" cx="11.083" cy="3.417"/>
<linearGradient y2="2.918" id="svg1.SVGID_9_" x1="11.0835" gradientUnits="userSpaceOnUse" x2="11.0835" y1="3.916">
	<stop offset="0" style="stop-color:#9CD7FF"/>
	<stop offset="1" style="stop-color:#F2F2F2"/>
</linearGradient>
<ellipse rx="0.558" fill="url(#svg1.SVGID_9_)" ry="0.499" cx="11.083" cy="3.417"/>
<path fill="#F2F2F2" opacity="0.24" d="M20.938,15.065c0,0-6.654,2.879-10.771,4.019C6.05,20.223,2,21.125,2,21.125V5h19  L20.938,15.065z"/>
</svg>
      </g>
    </g>
    <g font-size="18" stroke-linecap="butt" transform="matrix(1,0,0,1,241,167)" text-rendering="optimizeQuality" font-family="sans-serif" shape-rendering="geometricPrecision" stroke-miterlimit="1.45">
      <text x="405.1504" xml:space="preserve" y="68.7031" clip-path="url(#clipPath2)" stroke="none">Sensor</text>
    </g>
    <g text-rendering="optimizeQuality" stroke-miterlimit="1.45" shape-rendering="geometricPrecision" transform="matrix(1,0,0,1,241,167)" stroke-linecap="butt">
      <rect fill="none" x="-225.5" width="344" height="357" y="-151.5" clip-path="url(#clipPath2)"/>
    </g>
    <g shape-rendering="geometricPrecision" text-rendering="optimizeQuality" transform="matrix(1,0,0,1,176,15.5)">
      <g clip-path="url(#clipPath4)">
        <svg xmlns:a="http://ns.adobe.com/AdobeSVGViewerExtensions/3.0/" xml:space="preserve" opacity="1" writing-mode="lr-tb" stop-color="rgb(0, 0, 0)" shape-rendering="auto" glyph-orientation-horizontal="0deg" color-profile="auto" lighting-color="rgb(255, 255, 255)" color="rgb(0, 0, 0)" font-weight="400" alignment-baseline="auto" font-style="normal" version="1.1" color-interpolation-filters="linearrgb" text-anchor="start" stroke-linecap="butt" color-interpolation="srgb" font-variant="normal" word-spacing="normal" fill-opacity="1" text-rendering="auto" clip-path="none" text-decoration="none" letter-spacing="normal" viewBox="0 0 23 38" glyph-orientation-vertical="auto" display="inline" font-size-adjust="none" overflow="hidden" fill="rgb(0, 0, 0)" font-stretch="normal" stroke-dasharray="none" stroke-miterlimit="4" stop-opacity="1" color-rendering="auto" font-size="12" pointer-events="visiblepainted" mask="none" direction="ltr" baseline-shift="baseline" enable-background="new 0 0 23 38" fill-rule="nonzero" image-rendering="auto" stroke-dashoffset="0" width="23px" marker-end="none" clip="auto" cursor="auto" stroke="none" filter="none" visibility="visible" kerning="auto" stroke-width="1" font-family="&quot;Arial&quot;,&quot;Helvetica&quot;,sans-serif" flood-opacity="1" clip-rule="nonzero" src="none" height="38px" unicode-bidi="normal" stroke-linejoin="miter" stroke-opacity="1" flood-color="rgb(0, 0, 0)" dominant-baseline="auto" marker-start="none" x="0px" marker-mid="none" y="0px">
<defs>
</defs>
<g>
	<path fill="#C5C5C5" d="M23,35.916C23,37.063,22.063,38,20.916,38H2.084C0.938,38,0,37.063,0,35.916V2.084C0,0.938,0.938,0,2.084,0   h18.832C22.063,0,23,0.938,23,2.084V35.916z"/>
</g>
<g>
	<linearGradient y2="2.0005" id="svg2.SVGID_1_" x1="11.5005" gradientUnits="userSpaceOnUse" x2="11.5005" y1="34">
		<stop offset="0" style="stop-color:#515151"/>
		<stop offset="1" style="stop-color:#848484"/>
	</linearGradient>
	<path fill="url(#svg2.SVGID_1_)" d="M22,32.184C22,33.187,21.187,34,20.184,34H2.816C1.813,34,1,33.187,1,32.184V3.816   C1,2.813,1.813,2,2.816,2h17.367C21.187,2,22,2.813,22,3.816V32.184z"/>
</g>
<radialGradient gradientTransform="matrix(1 0 0 0.9565 0 1.1737)" id="svg2.SVGID_2_" r="23.5037" cx="11.5" gradientUnits="userSpaceOnUse" cy="4.1665">
	<stop offset="0" style="stop-color:#9CD7FF"/>
	<stop offset="1" style="stop-color:#3C89C9"/>
</radialGradient>
<rect x="2" fill="url(#svg2.SVGID_2_)" width="19" y="5" height="22"/>
<linearGradient y2="29.334" id="svg2.SVGID_3_" x1="11.5835" gradientUnits="userSpaceOnUse" x2="11.5835" y1="31.5">
	<stop offset="0" style="stop-color:#B8B8B8"/>
	<stop offset="1" style="stop-color:#F2F2F2"/>
</linearGradient>
<ellipse rx="1.5" fill="url(#svg2.SVGID_3_)" ry="1.083" cx="11.583" cy="30.417"/>
<linearGradient y2="29.6631" id="svg2.SVGID_4_" x1="15.334" gradientUnits="userSpaceOnUse" x2="15.334" y1="31.1709">
	<stop offset="0" style="stop-color:#B8B8B8"/>
	<stop offset="1" style="stop-color:#F2F2F2"/>
</linearGradient>
<ellipse rx="1.043" fill="url(#svg2.SVGID_4_)" ry="0.754" cx="15.333" cy="30.417"/>
<linearGradient y2="29.6631" id="svg2.SVGID_5_" x1="19.084" gradientUnits="userSpaceOnUse" x2="19.084" y1="31.1709">
	<stop offset="0" style="stop-color:#B8B8B8"/>
	<stop offset="1" style="stop-color:#F2F2F2"/>
</linearGradient>
<ellipse rx="1.043" fill="url(#svg2.SVGID_5_)" ry="0.754" cx="19.083" cy="30.417"/>
<linearGradient y2="29.6631" id="svg2.SVGID_6_" x1="4.0835" gradientUnits="userSpaceOnUse" x2="4.0835" y1="31.1709">
	<stop offset="0" style="stop-color:#B8B8B8"/>
	<stop offset="1" style="stop-color:#F2F2F2"/>
</linearGradient>
<ellipse rx="1.043" fill="url(#svg2.SVGID_6_)" ry="0.754" cx="4.083" cy="30.417"/>
<linearGradient y2="29.6631" id="svg2.SVGID_7_" x1="7.8335" gradientUnits="userSpaceOnUse" x2="7.8335" y1="31.1709">
	<stop offset="0" style="stop-color:#B8B8B8"/>
	<stop offset="1" style="stop-color:#F2F2F2"/>
</linearGradient>
<ellipse rx="1.043" fill="url(#svg2.SVGID_7_)" ry="0.754" cx="7.833" cy="30.417"/>
<linearGradient y2="2.4658" id="svg2.SVGID_8_" x1="11.0835" gradientUnits="userSpaceOnUse" x2="11.0835" y1="4.3682">
	<stop offset="0" style="stop-color:#B8B8B8"/>
	<stop offset="1" style="stop-color:#A2A2A2"/>
</linearGradient>
<ellipse rx="1.063" fill="url(#svg2.SVGID_8_)" ry="0.951" cx="11.083" cy="3.417"/>
<linearGradient y2="2.918" id="svg2.SVGID_9_" x1="11.0835" gradientUnits="userSpaceOnUse" x2="11.0835" y1="3.916">
	<stop offset="0" style="stop-color:#9CD7FF"/>
	<stop offset="1" style="stop-color:#F2F2F2"/>
</linearGradient>
<ellipse rx="0.558" fill="url(#svg2.SVGID_9_)" ry="0.499" cx="11.083" cy="3.417"/>
<path fill="#F2F2F2" opacity="0.24" d="M20.938,15.065c0,0-6.654,2.879-10.771,4.019C6.05,20.223,2,21.125,2,21.125V5h19  L20.938,15.065z"/>
</svg>
      </g>
    </g>
    <g font-size="18" stroke-linecap="butt" transform="matrix(1,0,0,1,241,167)" text-rendering="optimizeQuality" font-family="sans-serif" shape-rendering="geometricPrecision" stroke-miterlimit="1.45">
      <text x="-134.6099" xml:space="preserve" y="-90.7969" clip-path="url(#clipPath2)" stroke="none">BeagleBone Black</text>
      <text x="-158.8677" xml:space="preserve" y="-69.8438" clip-path="url(#clipPath2)" stroke="none">Mission Control System</text>
    </g>
    <g fill="white" text-rendering="optimizeQuality" shape-rendering="geometricPrecision" transform="matrix(1,0,0,1,241,167)" stroke="white">
      <rect x="3.5" width="128" height="128" y="-37" clip-path="url(#clipPath2)" stroke="none"/>
    </g>
    <g font-size="18" stroke-linecap="butt" transform="matrix(1,0,0,1,241,167)" text-rendering="optimizeQuality" font-family="sans-serif" shape-rendering="geometricPrecision" stroke-miterlimit="1.45">
      <text x="21.3354" xml:space="preserve" y="22.75" clip-path="url(#clipPath2)" stroke="none">VPPN-CAN</text>
      <text x="27.7427" xml:space="preserve" y="43.7031" clip-path="url(#clipPath2)" stroke="none">Gateway</text>
      <rect fill="none" x="3.5" width="128" height="128" y="-37" clip-path="url(#clipPath2)"/>
      <text x="-195.3475" xml:space="preserve" y="-25.25" clip-path="url(#clipPath2)" stroke="none">Lookup</text>
      <text x="-195.9539" xml:space="preserve" y="-4.2969" clip-path="url(#clipPath2)" stroke="none">Service</text>
      <rect fill="none" x="-215.6917" width="106" height="44" y="-43" clip-path="url(#clipPath2)"/>
      <text x="-209.2538" xml:space="preserve" y="176.2266" clip-path="url(#clipPath2)" stroke="none">Application (Consumer)</text>
      <rect fill="none" x="-215.6917" width="225" height="38" y="151" clip-path="url(#clipPath2)"/>
    </g>
    <g shape-rendering="geometricPrecision" text-rendering="optimizeQuality" transform="matrix(1,0,0,1,139.9487,212.5926)">
      <g clip-path="url(#clipPath5)">
        <svg xmlns:a="http://ns.adobe.com/AdobeSVGViewerExtensions/3.0/" xml:space="preserve" opacity="1" writing-mode="lr-tb" stop-color="rgb(0, 0, 0)" shape-rendering="auto" glyph-orientation-horizontal="0deg" color-profile="auto" lighting-color="rgb(255, 255, 255)" color="rgb(0, 0, 0)" font-weight="400" alignment-baseline="auto" font-style="normal" version="1.1" color-interpolation-filters="linearrgb" text-anchor="start" stroke-linecap="butt" color-interpolation="srgb" font-variant="normal" word-spacing="normal" fill-opacity="1" text-rendering="auto" clip-path="none" text-decoration="none" letter-spacing="normal" viewBox="-0.435 -0.869 68 60" glyph-orientation-vertical="auto" display="inline" font-size-adjust="none" overflow="hidden" fill="rgb(0, 0, 0)" font-stretch="normal" stroke-dasharray="none" stroke-miterlimit="4" stop-opacity="1" color-rendering="auto" font-size="12" pointer-events="visiblepainted" mask="none" direction="ltr" baseline-shift="baseline" enable-background="new -0.435 -0.869 68 60" fill-rule="nonzero" image-rendering="auto" stroke-dashoffset="0" width="68px" marker-end="none" clip="auto" cursor="auto" stroke="none" filter="none" visibility="visible" kerning="auto" stroke-width="1" font-family="&quot;Arial&quot;,&quot;Helvetica&quot;,sans-serif" flood-opacity="1" clip-rule="nonzero" src="none" height="60px" unicode-bidi="normal" stroke-linejoin="miter" stroke-opacity="1" flood-color="rgb(0, 0, 0)" dominant-baseline="auto" marker-start="none" x="0px" marker-mid="none" y="0px">
<defs>
</defs>
<path fill="#666666" d="M52.462,30.881c-0.021,0-0.037,0.01-0.059,0.012c-0.021-0.002-0.037-0.012-0.059-0.012h-18.5v-7.555  c0-0.414-0.335-0.75-0.75-0.75c-0.414,0-0.75,0.336-0.75,0.75v7.555h-18.5c-0.02,0-0.037,0.01-0.057,0.012  c-0.02-0.002-0.037-0.012-0.057-0.012c-0.414,0-0.75,0.336-0.75,0.75v3.834c0,0.414,0.336,0.75,0.75,0.75s0.75-0.336,0.75-0.75  v-3.084H51.71v3.084c0,0.414,0.336,0.75,0.75,0.75s0.75-0.336,0.75-0.75v-3.834C53.212,31.217,52.876,30.881,52.462,30.881z"/>
<linearGradient gradientTransform="matrix(1 0 0 -1 -97.6001 -158.6377)" x1="130.7236" x2="130.7236" gradientUnits="userSpaceOnUse" y1="-184.1631" y2="-191.9565" id="svg3.SVGID_1_">
	<stop offset="0" style="stop-color:#9CD7FF"/>
	<stop offset="1" style="stop-color:#3C89C9"/>
</linearGradient>
<path fill="url(#svg3.SVGID_1_)" d="M36.296,29.976c-0.832,0-1.513-0.681-1.513-1.513v-1.424c0-0.832-0.681-1.513-1.513-1.513h-0.214  c-0.832,0-1.513,0.681-1.513,1.513v1.424c0,0.832-0.681,1.513-1.513,1.513h-2.499c-0.832,0-1.513,0.681-1.513,1.513v0.317  c0,0.832,0.681,1.513,1.513,1.513h11.187c0.832,0,1.513-0.681,1.513-1.513v-0.317c0-0.833-0.681-1.513-1.513-1.513H36.296z"/>
<linearGradient gradientTransform="matrix(1 0 0 1 -585.5996 -1982.4023)" x1="605.8877" x2="593.1709" gradientUnits="userSpaceOnUse" y1="2040.6665" y2="2040.6665" id="svg3.SVGID_2_">
	<stop offset="0" style="stop-color:#4D4D4D"/>
	<stop offset="1" style="stop-color:#999999"/>
</linearGradient>
<path fill="url(#svg3.SVGID_2_)" d="M20.205,57.452c0,0.519-3.619,0.752-6.627,0.752c-2.083,0-5.846-0.186-6.089-0.678  c0,0.238,0,0.806,0,0.89c0,0.389,2.573,0.661,6.084,0.661c3.511,0,6.632-0.344,6.632-0.729C20.205,58.264,20.205,57.7,20.205,57.452  z"/>
<path fill="#808080" d="M13.846,56.806c3.512,0,6.358,0.313,6.358,0.699s-2.846,0.763-6.358,0.763c-3.59,0-6.358-0.375-6.358-0.763  S10.335,56.806,13.846,56.806z"/>
<linearGradient gradientTransform="matrix(1 0 0 1 -585.5996 -1982.4023)" x1="600.833" x2="598.1563" gradientUnits="userSpaceOnUse" y1="2037.4702" y2="2037.4702" id="svg3.SVGID_3_">
	<stop offset="0" style="stop-color:#999999"/>
	<stop offset="0.0417" style="stop-color:#8D8D8D"/>
	<stop offset="0.1617" style="stop-color:#717171"/>
	<stop offset="0.2821" style="stop-color:#5D5D5D"/>
	<stop offset="0.4021" style="stop-color:#515151"/>
	<stop offset="0.5212" style="stop-color:#4D4D4D"/>
	<stop offset="0.6202" style="stop-color:#565656"/>
	<stop offset="0.7817" style="stop-color:#6E6E6E"/>
	<stop offset="0.9844" style="stop-color:#969696"/>
	<stop offset="1" style="stop-color:#999999"/>
</linearGradient>
<path fill="url(#svg3.SVGID_3_)" d="M15.215,57.657c0,0-0.792,0.053-1.339,0.053s-1.338-0.053-1.338-0.053v-5.231h2.677V57.657z"/>
<radialGradient gradientTransform="matrix(1.15 0 0 1 -526.6041 -1982.4023)" id="svg3.SVGID_4_" r="12.8975" cx="465.1113" gradientUnits="userSpaceOnUse" cy="2023.4497">
	<stop offset="0" style="stop-color:#F2F2F2"/>
	<stop offset="1" style="stop-color:#666666"/>
</radialGradient>
<path fill="url(#svg3.SVGID_4_)" d="M0.065,36.888c0-0.59,0.482-1.071,1.072-1.071H26.98c0.589,0,1.071,0.481,1.071,1.071v16.108  c0,0.589-0.482,1.07-1.071,1.07H1.137c-0.59,0.002-1.072-0.481-1.072-1.07V36.888z"/>
<path stroke-linecap="round" fill="none" stroke-linejoin="round" d="  M0.065,36.888c0-0.59,0.482-1.071,1.072-1.071H26.98c0.589,0,1.071,0.481,1.071,1.071v16.108c0,0.589-0.482,1.07-1.071,1.07H1.137  c-0.59,0.002-1.072-0.481-1.072-1.07V36.888z" stroke="#666666" stroke-width="0.1305" stroke-miterlimit="10"/>
<radialGradient gradientTransform="matrix(1.1935 0 0 1 -509.6013 -1982.4023)" gradientUnits="userSpaceOnUse" r="28.5715" cx="439.1309" id="svg3.SVGID_5_" cy="2019.0845" fx="461.6079" fy="2015.234">
	<stop offset="0" style="stop-color:#4D4D4D"/>
	<stop offset="1" style="stop-color:#999999"/>
</radialGradient>
<path fill="url(#svg3.SVGID_5_)" d="M0.613,37.436c0-0.591,0.482-1.072,1.071-1.072h24.871c0.589,0,1.071,0.481,1.071,1.072v14.893  c0,0.59-0.482,1.072-1.071,1.072H1.685c-0.589,0-1.071-0.482-1.071-1.072V37.436z"/>
<radialGradient gradientTransform="matrix(1.1923 0 0 1 -510.0601 -1982.4023)" id="svg3.SVGID_6_" r="18.3134" cx="440.0439" gradientUnits="userSpaceOnUse" cy="2019.1304">
	<stop offset="0" style="stop-color:#9CD7FF"/>
	<stop offset="1" style="stop-color:#3C89C9"/>
</radialGradient>
<path fill="url(#svg3.SVGID_6_)" d="M0.917,37.679c0-0.59,0.482-1.071,1.072-1.071h24.262c0.589,0,1.071,0.481,1.071,1.071v14.406  c0,0.588-0.482,1.069-1.071,1.069H1.989c-0.59,0-1.072-0.481-1.072-1.069V37.679z"/>
<path fill="#F2F2F2" opacity="0.24" d="M0.917,49.11V37.679c0-0.59,0.482-1.071,1.072-1.071h24.262c0.589,0,1.071,0.481,1.071,1.071  v7.252l-12.407,2.646c-0.57,0.146-1.52,0.293-2.107,0.326L0.917,49.11z"/>
<linearGradient gradientTransform="matrix(1 0 0 1 -585.5996 -1982.4023)" x1="644.3887" x2="631.6719" gradientUnits="userSpaceOnUse" y1="2040.6665" y2="2040.6665" id="svg3.SVGID_7_">
	<stop offset="0" style="stop-color:#4D4D4D"/>
	<stop offset="1" style="stop-color:#999999"/>
</linearGradient>
<path fill="url(#svg3.SVGID_7_)" d="M58.706,57.452c0,0.518-3.621,0.752-6.627,0.752c-2.084,0-5.848-0.186-6.09-0.678  c0,0.237,0,0.805,0,0.889c0,0.389,2.572,0.662,6.084,0.662s6.633-0.344,6.633-0.729C58.706,58.263,58.706,57.7,58.706,57.452z"/>
<path fill="#808080" d="M52.347,56.805c3.512,0,6.357,0.313,6.357,0.699s-2.847,0.762-6.357,0.762c-3.59,0-6.357-0.373-6.357-0.762  C45.989,57.118,48.837,56.805,52.347,56.805z"/>
<linearGradient gradientTransform="matrix(1 0 0 1 -585.5996 -1982.4023)" x1="639.333" x2="636.6553" gradientUnits="userSpaceOnUse" y1="2037.4683" y2="2037.4683" id="svg3.SVGID_8_">
	<stop offset="0" style="stop-color:#999999"/>
	<stop offset="0.0417" style="stop-color:#8D8D8D"/>
	<stop offset="0.1617" style="stop-color:#717171"/>
	<stop offset="0.2821" style="stop-color:#5D5D5D"/>
	<stop offset="0.4021" style="stop-color:#515151"/>
	<stop offset="0.5212" style="stop-color:#4D4D4D"/>
	<stop offset="0.6202" style="stop-color:#565656"/>
	<stop offset="0.7817" style="stop-color:#6E6E6E"/>
	<stop offset="0.9844" style="stop-color:#969696"/>
	<stop offset="1" style="stop-color:#999999"/>
</linearGradient>
<path fill="url(#svg3.SVGID_8_)" d="M53.716,57.657c0,0-0.791,0.052-1.34,0.052c-0.547,0-1.338-0.052-1.338-0.052v-5.232h2.678V57.657z"/>
<radialGradient gradientTransform="matrix(1.15 0 0 1 -526.6041 -1982.4023)" id="svg3.SVGID_9_" r="12.8975" cx="498.5898" gradientUnits="userSpaceOnUse" cy="2023.4487">
	<stop offset="0" style="stop-color:#F2F2F2"/>
	<stop offset="1" style="stop-color:#666666"/>
</radialGradient>
<path fill="url(#svg3.SVGID_9_)" d="M38.566,36.887c0-0.59,0.481-1.072,1.071-1.072h25.844c0.589,0,1.07,0.482,1.07,1.072v16.107  c0,0.59-0.481,1.072-1.07,1.072H39.638c-0.59,0-1.071-0.482-1.071-1.072V36.887z"/>
<path stroke-linecap="round" fill="none" stroke-linejoin="round" d="  M38.566,36.887c0-0.59,0.481-1.072,1.071-1.072h25.844c0.589,0,1.07,0.482,1.07,1.072v16.107c0,0.59-0.481,1.072-1.07,1.072H39.638  c-0.59,0-1.071-0.482-1.071-1.072V36.887z" stroke="#666666" stroke-width="0.1305" stroke-miterlimit="10"/>
<radialGradient gradientTransform="matrix(1.1935 0 0 1 -509.6013 -1982.4023)" gradientUnits="userSpaceOnUse" r="28.5697" cx="471.3896" id="svg3.SVGID_10_" cy="2019.0845" fx="493.8652" fy="2015.2343">
	<stop offset="0" style="stop-color:#4D4D4D"/>
	<stop offset="1" style="stop-color:#999999"/>
</radialGradient>
<path fill="url(#svg3.SVGID_10_)" d="M39.114,37.434c0-0.59,0.482-1.072,1.071-1.072h24.87c0.589,0,1.07,0.482,1.07,1.072v14.895  c0,0.589-0.481,1.07-1.07,1.07h-24.87c-0.589,0-1.071-0.481-1.071-1.07V37.434z"/>
<radialGradient gradientTransform="matrix(1.1923 0 0 1 -510.0601 -1982.4023)" id="svg3.SVGID_11_" r="18.3139" cx="472.334" gradientUnits="userSpaceOnUse" cy="2019.1294">
	<stop offset="0" style="stop-color:#9CD7FF"/>
	<stop offset="1" style="stop-color:#3C89C9"/>
</radialGradient>
<path fill="url(#svg3.SVGID_11_)" d="M39.419,37.678c0-0.59,0.481-1.072,1.07-1.072h24.264c0.588,0,1.07,0.482,1.07,1.072v14.406  c0,0.588-0.482,1.07-1.07,1.07H40.489c-0.589,0-1.07-0.482-1.07-1.07V37.678z"/>
<path fill="#F2F2F2" opacity="0.24" d="M39.419,49.108v-11.43c0-0.59,0.481-1.072,1.07-1.072h24.264c0.588,0,1.07,0.482,1.07,1.072  v7.252l-12.408,2.645c-0.57,0.146-1.52,0.295-2.106,0.326L39.419,49.108z"/>
<linearGradient gradientTransform="matrix(1 0 0 1 -585.5996 -1982.4023)" x1="624.8936" x2="612.1787" gradientUnits="userSpaceOnUse" y1="2004.9155" y2="2004.9155" id="svg3.SVGID_12_">
	<stop offset="0" style="stop-color:#4D4D4D"/>
	<stop offset="1" style="stop-color:#999999"/>
</linearGradient>
<path fill="url(#svg3.SVGID_12_)" d="M39.212,21.701c0,0.518-3.621,0.752-6.626,0.752c-2.083,0-5.847-0.186-6.089-0.678  c0,0.238,0,0.805,0,0.889c0,0.389,2.573,0.662,6.084,0.662c3.51,0,6.631-0.344,6.631-0.729  C39.212,22.513,39.212,21.949,39.212,21.701z"/>
<path fill="#808080" d="M32.854,21.055c3.511,0,6.358,0.313,6.358,0.699c0,0.386-2.848,0.762-6.358,0.762  c-3.589,0-6.358-0.374-6.358-0.762C26.496,21.367,29.342,21.055,32.854,21.055z"/>
<linearGradient gradientTransform="matrix(1 0 0 1 -585.5996 -1982.4023)" x1="619.8379" x2="617.1611" gradientUnits="userSpaceOnUse" y1="2001.7183" y2="2001.7183" id="svg3.SVGID_13_">
	<stop offset="0" style="stop-color:#999999"/>
	<stop offset="0.0417" style="stop-color:#8D8D8D"/>
	<stop offset="0.1617" style="stop-color:#717171"/>
	<stop offset="0.2821" style="stop-color:#5D5D5D"/>
	<stop offset="0.4021" style="stop-color:#515151"/>
	<stop offset="0.5212" style="stop-color:#4D4D4D"/>
	<stop offset="0.6202" style="stop-color:#565656"/>
	<stop offset="0.7817" style="stop-color:#6E6E6E"/>
	<stop offset="0.9844" style="stop-color:#969696"/>
	<stop offset="1" style="stop-color:#999999"/>
</linearGradient>
<path fill="url(#svg3.SVGID_13_)" d="M34.222,21.906c0,0-0.791,0.052-1.338,0.052c-0.547,0-1.338-0.052-1.338-0.052v-5.232h2.677  L34.222,21.906L34.222,21.906z"/>
<radialGradient gradientTransform="matrix(1.15 0 0 1 -526.6041 -1982.4023)" id="svg3.SVGID_14_" r="12.8975" cx="481.6387" gradientUnits="userSpaceOnUse" cy="1987.6978">
	<stop offset="0" style="stop-color:#F2F2F2"/>
	<stop offset="1" style="stop-color:#666666"/>
</radialGradient>
<path fill="url(#svg3.SVGID_14_)" d="M19.072,1.137c0-0.59,0.482-1.072,1.071-1.072h25.843c0.589,0,1.071,0.482,1.071,1.072v16.108  c0,0.589-0.482,1.071-1.071,1.071H20.145c-0.589,0-1.071-0.482-1.071-1.071L19.072,1.137L19.072,1.137z"/>
<path stroke-linecap="round" fill="none" stroke-linejoin="round" d="  M19.072,1.137c0-0.59,0.482-1.072,1.071-1.072h25.843c0.589,0,1.071,0.482,1.071,1.072v16.108c0,0.589-0.482,1.071-1.071,1.071  H20.145c-0.589,0-1.071-0.482-1.071-1.071L19.072,1.137L19.072,1.137z" stroke="#666666" stroke-width="0.1305" stroke-miterlimit="10"/>
<radialGradient gradientTransform="matrix(1.1935 0 0 1 -509.6013 -1982.4023)" gradientUnits="userSpaceOnUse" r="28.5689" cx="455.0566" id="svg3.SVGID_15_" cy="1983.3345" fx="477.5316" fy="1979.4844">
	<stop offset="0" style="stop-color:#4D4D4D"/>
	<stop offset="1" style="stop-color:#999999"/>
</radialGradient>
<path fill="url(#svg3.SVGID_15_)" d="M19.621,1.685c0-0.59,0.482-1.072,1.072-1.072h24.87c0.589,0,1.071,0.482,1.071,1.072v14.894  c0,0.589-0.482,1.071-1.071,1.071h-24.87c-0.589,0-1.072-0.482-1.072-1.071V1.685z"/>
<radialGradient gradientTransform="matrix(1.1923 0 0 1 -510.0601 -1982.4023)" id="svg3.SVGID_16_" r="18.3134" cx="455.9854" gradientUnits="userSpaceOnUse" cy="1983.3784">
	<stop offset="0" style="stop-color:#9CD7FF"/>
	<stop offset="1" style="stop-color:#3C89C9"/>
</radialGradient>
<path fill="url(#svg3.SVGID_16_)" d="M19.924,1.928c0-0.59,0.482-1.072,1.072-1.072h24.262c0.589,0,1.07,0.482,1.07,1.072v14.406  c0,0.588-0.481,1.07-1.07,1.07H20.997c-0.589,0-1.072-0.482-1.072-1.07V1.928z"/>
<path fill="#F2F2F2" opacity="0.24" d="M19.924,13.358V1.928c0-0.59,0.482-1.072,1.072-1.072h24.262c0.589,0,1.07,0.482,1.07,1.072  V9.18l-12.408,2.646c-0.569,0.146-1.519,0.294-2.106,0.326L19.924,13.358z"/>
</svg>
      </g>
    </g>
    <g shape-rendering="geometricPrecision" text-rendering="optimizeQuality" transform="matrix(1,0,0,1,241,167)">
      <rect x="-69.3083" width="4" height="4" y="109.5386" clip-path="url(#clipPath2)" stroke="none"/>
      <rect x="-69.3083" y="109.5386" clip-path="url(#clipPath2)" fill="none" width="4" height="4" stroke-miterlimit="1.6"/>
      <rect x="-132.1413" width="129.666" height="24.9531" y="63.5234" clip-path="url(#clipPath2)" stroke="none"/>
      <rect x="-132.1413" y="63.5234" clip-path="url(#clipPath2)" fill="none" width="129.666" height="24.9531" stroke-miterlimit="1.6"/>
    </g>
    <g font-size="18" stroke-linecap="butt" transform="matrix(1,0,0,1,241,167)" fill="white" text-rendering="optimizeQuality" font-family="sans-serif" shape-rendering="geometricPrecision" stroke="white" stroke-miterlimit="1.45">
      <text x="-130.1413" xml:space="preserve" y="82.2266" clip-path="url(#clipPath2)" stroke="none">Sockets / UDP</text>
    </g>
    <g shape-rendering="geometricPrecision" text-rendering="optimizeQuality" transform="matrix(1,0,0,1,485.257,163.5926)">
      <g clip-path="url(#clipPath6)">
        <svg xmlns:a="http://ns.adobe.com/AdobeSVGViewerExtensions/3.0/" xml:space="preserve" opacity="1" writing-mode="lr-tb" stop-color="rgb(0, 0, 0)" shape-rendering="auto" glyph-orientation-horizontal="0deg" color-profile="auto" lighting-color="rgb(255, 255, 255)" color="rgb(0, 0, 0)" font-weight="400" alignment-baseline="auto" font-style="normal" version="1.1" color-interpolation-filters="linearrgb" text-anchor="start" stroke-linecap="butt" color-interpolation="srgb" font-variant="normal" word-spacing="normal" fill-opacity="1" text-rendering="auto" clip-path="none" text-decoration="none" letter-spacing="normal" viewBox="-0.435 -0.869 68 60" glyph-orientation-vertical="auto" display="inline" font-size-adjust="none" overflow="hidden" fill="rgb(0, 0, 0)" font-stretch="normal" stroke-dasharray="none" stroke-miterlimit="4" stop-opacity="1" color-rendering="auto" font-size="12" pointer-events="visiblepainted" mask="none" direction="ltr" baseline-shift="baseline" enable-background="new -0.435 -0.869 68 60" fill-rule="nonzero" image-rendering="auto" stroke-dashoffset="0" width="68px" marker-end="none" clip="auto" cursor="auto" stroke="none" filter="none" visibility="visible" kerning="auto" stroke-width="1" font-family="&quot;Arial&quot;,&quot;Helvetica&quot;,sans-serif" flood-opacity="1" clip-rule="nonzero" src="none" height="60px" unicode-bidi="normal" stroke-linejoin="miter" stroke-opacity="1" flood-color="rgb(0, 0, 0)" dominant-baseline="auto" marker-start="none" x="0px" marker-mid="none" y="0px">
<defs>
</defs>
<path fill="#666666" d="M52.462,30.881c-0.021,0-0.037,0.01-0.059,0.012c-0.021-0.002-0.037-0.012-0.059-0.012h-18.5v-7.555  c0-0.414-0.335-0.75-0.75-0.75c-0.414,0-0.75,0.336-0.75,0.75v7.555h-18.5c-0.02,0-0.037,0.01-0.057,0.012  c-0.02-0.002-0.037-0.012-0.057-0.012c-0.414,0-0.75,0.336-0.75,0.75v3.834c0,0.414,0.336,0.75,0.75,0.75s0.75-0.336,0.75-0.75  v-3.084H51.71v3.084c0,0.414,0.336,0.75,0.75,0.75s0.75-0.336,0.75-0.75v-3.834C53.212,31.217,52.876,30.881,52.462,30.881z"/>
<linearGradient gradientTransform="matrix(1 0 0 -1 -97.6001 -158.6377)" x1="130.7236" x2="130.7236" gradientUnits="userSpaceOnUse" y1="-184.1631" y2="-191.9565" id="svg4.SVGID_1_">
	<stop offset="0" style="stop-color:#9CD7FF"/>
	<stop offset="1" style="stop-color:#3C89C9"/>
</linearGradient>
<path fill="url(#svg4.SVGID_1_)" d="M36.296,29.976c-0.832,0-1.513-0.681-1.513-1.513v-1.424c0-0.832-0.681-1.513-1.513-1.513h-0.214  c-0.832,0-1.513,0.681-1.513,1.513v1.424c0,0.832-0.681,1.513-1.513,1.513h-2.499c-0.832,0-1.513,0.681-1.513,1.513v0.317  c0,0.832,0.681,1.513,1.513,1.513h11.187c0.832,0,1.513-0.681,1.513-1.513v-0.317c0-0.833-0.681-1.513-1.513-1.513H36.296z"/>
<linearGradient gradientTransform="matrix(1 0 0 1 -585.5996 -1982.4023)" x1="605.8877" x2="593.1709" gradientUnits="userSpaceOnUse" y1="2040.6665" y2="2040.6665" id="svg4.SVGID_2_">
	<stop offset="0" style="stop-color:#4D4D4D"/>
	<stop offset="1" style="stop-color:#999999"/>
</linearGradient>
<path fill="url(#svg4.SVGID_2_)" d="M20.205,57.452c0,0.519-3.619,0.752-6.627,0.752c-2.083,0-5.846-0.186-6.089-0.678  c0,0.238,0,0.806,0,0.89c0,0.389,2.573,0.661,6.084,0.661c3.511,0,6.632-0.344,6.632-0.729C20.205,58.264,20.205,57.7,20.205,57.452  z"/>
<path fill="#808080" d="M13.846,56.806c3.512,0,6.358,0.313,6.358,0.699s-2.846,0.763-6.358,0.763c-3.59,0-6.358-0.375-6.358-0.763  S10.335,56.806,13.846,56.806z"/>
<linearGradient gradientTransform="matrix(1 0 0 1 -585.5996 -1982.4023)" x1="600.833" x2="598.1563" gradientUnits="userSpaceOnUse" y1="2037.4702" y2="2037.4702" id="svg4.SVGID_3_">
	<stop offset="0" style="stop-color:#999999"/>
	<stop offset="0.0417" style="stop-color:#8D8D8D"/>
	<stop offset="0.1617" style="stop-color:#717171"/>
	<stop offset="0.2821" style="stop-color:#5D5D5D"/>
	<stop offset="0.4021" style="stop-color:#515151"/>
	<stop offset="0.5212" style="stop-color:#4D4D4D"/>
	<stop offset="0.6202" style="stop-color:#565656"/>
	<stop offset="0.7817" style="stop-color:#6E6E6E"/>
	<stop offset="0.9844" style="stop-color:#969696"/>
	<stop offset="1" style="stop-color:#999999"/>
</linearGradient>
<path fill="url(#svg4.SVGID_3_)" d="M15.215,57.657c0,0-0.792,0.053-1.339,0.053s-1.338-0.053-1.338-0.053v-5.231h2.677V57.657z"/>
<radialGradient gradientTransform="matrix(1.15 0 0 1 -526.6041 -1982.4023)" id="svg4.SVGID_4_" r="12.8975" cx="465.1113" gradientUnits="userSpaceOnUse" cy="2023.4497">
	<stop offset="0" style="stop-color:#F2F2F2"/>
	<stop offset="1" style="stop-color:#666666"/>
</radialGradient>
<path fill="url(#svg4.SVGID_4_)" d="M0.065,36.888c0-0.59,0.482-1.071,1.072-1.071H26.98c0.589,0,1.071,0.481,1.071,1.071v16.108  c0,0.589-0.482,1.07-1.071,1.07H1.137c-0.59,0.002-1.072-0.481-1.072-1.07V36.888z"/>
<path stroke-linecap="round" fill="none" stroke-linejoin="round" d="  M0.065,36.888c0-0.59,0.482-1.071,1.072-1.071H26.98c0.589,0,1.071,0.481,1.071,1.071v16.108c0,0.589-0.482,1.07-1.071,1.07H1.137  c-0.59,0.002-1.072-0.481-1.072-1.07V36.888z" stroke="#666666" stroke-width="0.1305" stroke-miterlimit="10"/>
<radialGradient gradientTransform="matrix(1.1935 0 0 1 -509.6013 -1982.4023)" gradientUnits="userSpaceOnUse" r="28.5715" cx="439.1309" id="svg4.SVGID_5_" cy="2019.0845" fx="461.6079" fy="2015.234">
	<stop offset="0" style="stop-color:#4D4D4D"/>
	<stop offset="1" style="stop-color:#999999"/>
</radialGradient>
<path fill="url(#svg4.SVGID_5_)" d="M0.613,37.436c0-0.591,0.482-1.072,1.071-1.072h24.871c0.589,0,1.071,0.481,1.071,1.072v14.893  c0,0.59-0.482,1.072-1.071,1.072H1.685c-0.589,0-1.071-0.482-1.071-1.072V37.436z"/>
<radialGradient gradientTransform="matrix(1.1923 0 0 1 -510.0601 -1982.4023)" id="svg4.SVGID_6_" r="18.3134" cx="440.0439" gradientUnits="userSpaceOnUse" cy="2019.1304">
	<stop offset="0" style="stop-color:#9CD7FF"/>
	<stop offset="1" style="stop-color:#3C89C9"/>
</radialGradient>
<path fill="url(#svg4.SVGID_6_)" d="M0.917,37.679c0-0.59,0.482-1.071,1.072-1.071h24.262c0.589,0,1.071,0.481,1.071,1.071v14.406  c0,0.588-0.482,1.069-1.071,1.069H1.989c-0.59,0-1.072-0.481-1.072-1.069V37.679z"/>
<path fill="#F2F2F2" opacity="0.24" d="M0.917,49.11V37.679c0-0.59,0.482-1.071,1.072-1.071h24.262c0.589,0,1.071,0.481,1.071,1.071  v7.252l-12.407,2.646c-0.57,0.146-1.52,0.293-2.107,0.326L0.917,49.11z"/>
<linearGradient gradientTransform="matrix(1 0 0 1 -585.5996 -1982.4023)" x1="644.3887" x2="631.6719" gradientUnits="userSpaceOnUse" y1="2040.6665" y2="2040.6665" id="svg4.SVGID_7_">
	<stop offset="0" style="stop-color:#4D4D4D"/>
	<stop offset="1" style="stop-color:#999999"/>
</linearGradient>
<path fill="url(#svg4.SVGID_7_)" d="M58.706,57.452c0,0.518-3.621,0.752-6.627,0.752c-2.084,0-5.848-0.186-6.09-0.678  c0,0.237,0,0.805,0,0.889c0,0.389,2.572,0.662,6.084,0.662s6.633-0.344,6.633-0.729C58.706,58.263,58.706,57.7,58.706,57.452z"/>
<path fill="#808080" d="M52.347,56.805c3.512,0,6.357,0.313,6.357,0.699s-2.847,0.762-6.357,0.762c-3.59,0-6.357-0.373-6.357-0.762  C45.989,57.118,48.837,56.805,52.347,56.805z"/>
<linearGradient gradientTransform="matrix(1 0 0 1 -585.5996 -1982.4023)" x1="639.333" x2="636.6553" gradientUnits="userSpaceOnUse" y1="2037.4683" y2="2037.4683" id="svg4.SVGID_8_">
	<stop offset="0" style="stop-color:#999999"/>
	<stop offset="0.0417" style="stop-color:#8D8D8D"/>
	<stop offset="0.1617" style="stop-color:#717171"/>
	<stop offset="0.2821" style="stop-color:#5D5D5D"/>
	<stop offset="0.4021" style="stop-color:#515151"/>
	<stop offset="0.5212" style="stop-color:#4D4D4D"/>
	<stop offset="0.6202" style="stop-color:#565656"/>
	<stop offset="0.7817" style="stop-color:#6E6E6E"/>
	<stop offset="0.9844" style="stop-color:#969696"/>
	<stop offset="1" style="stop-color:#999999"/>
</linearGradient>
<path fill="url(#svg4.SVGID_8_)" d="M53.716,57.657c0,0-0.791,0.052-1.34,0.052c-0.547,0-1.338-0.052-1.338-0.052v-5.232h2.678V57.657z"/>
<radialGradient gradientTransform="matrix(1.15 0 0 1 -526.6041 -1982.4023)" id="svg4.SVGID_9_" r="12.8975" cx="498.5898" gradientUnits="userSpaceOnUse" cy="2023.4487">
	<stop offset="0" style="stop-color:#F2F2F2"/>
	<stop offset="1" style="stop-color:#666666"/>
</radialGradient>
<path fill="url(#svg4.SVGID_9_)" d="M38.566,36.887c0-0.59,0.481-1.072,1.071-1.072h25.844c0.589,0,1.07,0.482,1.07,1.072v16.107  c0,0.59-0.481,1.072-1.07,1.072H39.638c-0.59,0-1.071-0.482-1.071-1.072V36.887z"/>
<path stroke-linecap="round" fill="none" stroke-linejoin="round" d="  M38.566,36.887c0-0.59,0.481-1.072,1.071-1.072h25.844c0.589,0,1.07,0.482,1.07,1.072v16.107c0,0.59-0.481,1.072-1.07,1.072H39.638  c-0.59,0-1.071-0.482-1.071-1.072V36.887z" stroke="#666666" stroke-width="0.1305" stroke-miterlimit="10"/>
<radialGradient gradientTransform="matrix(1.1935 0 0 1 -509.6013 -1982.4023)" gradientUnits="userSpaceOnUse" r="28.5697" cx="471.3896" id="svg4.SVGID_10_" cy="2019.0845" fx="493.8652" fy="2015.2343">
	<stop offset="0" style="stop-color:#4D4D4D"/>
	<stop offset="1" style="stop-color:#999999"/>
</radialGradient>
<path fill="url(#svg4.SVGID_10_)" d="M39.114,37.434c0-0.59,0.482-1.072,1.071-1.072h24.87c0.589,0,1.07,0.482,1.07,1.072v14.895  c0,0.589-0.481,1.07-1.07,1.07h-24.87c-0.589,0-1.071-0.481-1.071-1.07V37.434z"/>
<radialGradient gradientTransform="matrix(1.1923 0 0 1 -510.0601 -1982.4023)" id="svg4.SVGID_11_" r="18.3139" cx="472.334" gradientUnits="userSpaceOnUse" cy="2019.1294">
	<stop offset="0" style="stop-color:#9CD7FF"/>
	<stop offset="1" style="stop-color:#3C89C9"/>
</radialGradient>
<path fill="url(#svg4.SVGID_11_)" d="M39.419,37.678c0-0.59,0.481-1.072,1.07-1.072h24.264c0.588,0,1.07,0.482,1.07,1.072v14.406  c0,0.588-0.482,1.07-1.07,1.07H40.489c-0.589,0-1.07-0.482-1.07-1.07V37.678z"/>
<path fill="#F2F2F2" opacity="0.24" d="M39.419,49.108v-11.43c0-0.59,0.481-1.072,1.07-1.072h24.264c0.588,0,1.07,0.482,1.07,1.072  v7.252l-12.408,2.645c-0.57,0.146-1.52,0.295-2.106,0.326L39.419,49.108z"/>
<linearGradient gradientTransform="matrix(1 0 0 1 -585.5996 -1982.4023)" x1="624.8936" x2="612.1787" gradientUnits="userSpaceOnUse" y1="2004.9155" y2="2004.9155" id="svg4.SVGID_12_">
	<stop offset="0" style="stop-color:#4D4D4D"/>
	<stop offset="1" style="stop-color:#999999"/>
</linearGradient>
<path fill="url(#svg4.SVGID_12_)" d="M39.212,21.701c0,0.518-3.621,0.752-6.626,0.752c-2.083,0-5.847-0.186-6.089-0.678  c0,0.238,0,0.805,0,0.889c0,0.389,2.573,0.662,6.084,0.662c3.51,0,6.631-0.344,6.631-0.729  C39.212,22.513,39.212,21.949,39.212,21.701z"/>
<path fill="#808080" d="M32.854,21.055c3.511,0,6.358,0.313,6.358,0.699c0,0.386-2.848,0.762-6.358,0.762  c-3.589,0-6.358-0.374-6.358-0.762C26.496,21.367,29.342,21.055,32.854,21.055z"/>
<linearGradient gradientTransform="matrix(1 0 0 1 -585.5996 -1982.4023)" x1="619.8379" x2="617.1611" gradientUnits="userSpaceOnUse" y1="2001.7183" y2="2001.7183" id="svg4.SVGID_13_">
	<stop offset="0" style="stop-color:#999999"/>
	<stop offset="0.0417" style="stop-color:#8D8D8D"/>
	<stop offset="0.1617" style="stop-color:#717171"/>
	<stop offset="0.2821" style="stop-color:#5D5D5D"/>
	<stop offset="0.4021" style="stop-color:#515151"/>
	<stop offset="0.5212" style="stop-color:#4D4D4D"/>
	<stop offset="0.6202" style="stop-color:#565656"/>
	<stop offset="0.7817" style="stop-color:#6E6E6E"/>
	<stop offset="0.9844" style="stop-color:#969696"/>
	<stop offset="1" style="stop-color:#999999"/>
</linearGradient>
<path fill="url(#svg4.SVGID_13_)" d="M34.222,21.906c0,0-0.791,0.052-1.338,0.052c-0.547,0-1.338-0.052-1.338-0.052v-5.232h2.677  L34.222,21.906L34.222,21.906z"/>
<radialGradient gradientTransform="matrix(1.15 0 0 1 -526.6041 -1982.4023)" id="svg4.SVGID_14_" r="12.8975" cx="481.6387" gradientUnits="userSpaceOnUse" cy="1987.6978">
	<stop offset="0" style="stop-color:#F2F2F2"/>
	<stop offset="1" style="stop-color:#666666"/>
</radialGradient>
<path fill="url(#svg4.SVGID_14_)" d="M19.072,1.137c0-0.59,0.482-1.072,1.071-1.072h25.843c0.589,0,1.071,0.482,1.071,1.072v16.108  c0,0.589-0.482,1.071-1.071,1.071H20.145c-0.589,0-1.071-0.482-1.071-1.071L19.072,1.137L19.072,1.137z"/>
<path stroke-linecap="round" fill="none" stroke-linejoin="round" d="  M19.072,1.137c0-0.59,0.482-1.072,1.071-1.072h25.843c0.589,0,1.071,0.482,1.071,1.072v16.108c0,0.589-0.482,1.071-1.071,1.071  H20.145c-0.589,0-1.071-0.482-1.071-1.071L19.072,1.137L19.072,1.137z" stroke="#666666" stroke-width="0.1305" stroke-miterlimit="10"/>
<radialGradient gradientTransform="matrix(1.1935 0 0 1 -509.6013 -1982.4023)" gradientUnits="userSpaceOnUse" r="28.5689" cx="455.0566" id="svg4.SVGID_15_" cy="1983.3345" fx="477.5316" fy="1979.4844">
	<stop offset="0" style="stop-color:#4D4D4D"/>
	<stop offset="1" style="stop-color:#999999"/>
</radialGradient>
<path fill="url(#svg4.SVGID_15_)" d="M19.621,1.685c0-0.59,0.482-1.072,1.072-1.072h24.87c0.589,0,1.071,0.482,1.071,1.072v14.894  c0,0.589-0.482,1.071-1.071,1.071h-24.87c-0.589,0-1.072-0.482-1.072-1.071V1.685z"/>
<radialGradient gradientTransform="matrix(1.1923 0 0 1 -510.0601 -1982.4023)" id="svg4.SVGID_16_" r="18.3134" cx="455.9854" gradientUnits="userSpaceOnUse" cy="1983.3784">
	<stop offset="0" style="stop-color:#9CD7FF"/>
	<stop offset="1" style="stop-color:#3C89C9"/>
</radialGradient>
<path fill="url(#svg4.SVGID_16_)" d="M19.924,1.928c0-0.59,0.482-1.072,1.072-1.072h24.262c0.589,0,1.07,0.482,1.07,1.072v14.406  c0,0.588-0.481,1.07-1.07,1.07H20.997c-0.589,0-1.072-0.482-1.072-1.07V1.928z"/>
<path fill="#F2F2F2" opacity="0.24" d="M19.924,13.358V1.928c0-0.59,0.482-1.072,1.072-1.072h24.262c0.589,0,1.07,0.482,1.07,1.072  V9.18l-12.408,2.646c-0.569,0.146-1.519,0.294-2.106,0.326L19.924,13.358z"/>
</svg>
      </g>
    </g>
    <g shape-rendering="geometricPrecision" text-rendering="optimizeQuality" transform="matrix(1,0,0,1,241,167)">
      <rect x="276" width="4" height="4" y="60.5386" clip-path="url(#clipPath2)" stroke="none"/>
      <rect x="276" y="60.5386" clip-path="url(#clipPath2)" fill="none" width="4" height="4" stroke-miterlimit="1.6"/>
      <rect x="237.3984" width="81.2031" height="24.9531" y="14.5234" clip-path="url(#clipPath2)" stroke="none"/>
      <rect x="237.3984" y="14.5234" clip-path="url(#clipPath2)" fill="none" width="81.2031" height="24.9531" stroke-miterlimit="1.6"/>
    </g>
    <g font-size="18" stroke-linecap="butt" transform="matrix(1,0,0,1,241,167)" fill="white" text-rendering="optimizeQuality" font-family="sans-serif" shape-rendering="geometricPrecision" stroke="white" stroke-miterlimit="1.45">
      <text x="239.3984" xml:space="preserve" y="33.2266" clip-path="url(#clipPath2)" stroke="none">CAN Bus</text>
    </g>
    <g text-rendering="optimizeQuality" stroke-miterlimit="1.45" shape-rendering="geometricPrecision" transform="matrix(1,0,0,1,241,167)" stroke-linecap="butt">
      <path fill="none" d="M-141.0584 1 L-96.351 46.4651" clip-path="url(#clipPath2)"/>
      <path fill="none" d="M3.5 50.2627 L-34.0132 63.8979" clip-path="url(#clipPath2)"/>
      <path fill="none" d="M-95.9387 151 L-78.5899 105.5532" clip-path="url(#clipPath2)"/>
      <path fill="none" d="M424.5186 27 L311.3029 27" clip-path="url(#clipPath2)"/>
      <path fill="none" d="M244.6725 27 L131.5 27" clip-path="url(#clipPath2)"/>
    </g>
  </g>
</svg>
